<?xml version="1.0" encoding="UTF-8" standalone="no"?>
<!-- Created with Inkscape (http://www.inkscape.org/) -->

<svg
   xmlns:dc="http://purl.org/dc/elements/1.1/"
   xmlns:cc="http://creativecommons.org/ns#"
   xmlns:rdf="http://www.w3.org/1999/02/22-rdf-syntax-ns#"
   xmlns:svg="http://www.w3.org/2000/svg"
   xmlns="http://www.w3.org/2000/svg"
   xmlns:sodipodi="http://sodipodi.sourceforge.net/DTD/sodipodi-0.dtd"
   xmlns:inkscape="http://www.inkscape.org/namespaces/inkscape"
   width="156.68132mm"
   height="24.889593mm"
   viewBox="0 0 555.17003 88.191471"
   id="svg2"
   version="1.1"
   inkscape:version="0.91 r13725"
   sodipodi:docname="logo.svg">
  <defs
     id="defs4">
    <inkscape:path-effect
       effect="spiro"
       id="path-effect3364"
       is_visible="true" />
    <inkscape:path-effect
       effect="powerstroke"
       id="path-effect3360"
       is_visible="true"
       offset_points="0,0.5"
       sort_points="true"
       interpolator_type="Linear"
       interpolator_beta="0.2"
       start_linecap_type="zerowidth"
       linejoin_type="round"
       miter_limit="4"
       end_linecap_type="zerowidth"
       cusp_linecap_type="round" />
    <inkscape:path-effect
       effect="spiro"
       id="path-effect3358"
       is_visible="true" />
    <inkscape:path-effect
       effect="powerstroke"
       id="path-effect3354"
       is_visible="true"
       offset_points="0,0.5"
       sort_points="true"
       interpolator_type="Linear"
       interpolator_beta="0.2"
       start_linecap_type="zerowidth"
       linejoin_type="round"
       miter_limit="4"
       end_linecap_type="zerowidth"
       cusp_linecap_type="round" />
    <inkscape:path-effect
       effect="spiro"
       id="path-effect3352"
       is_visible="true" />
  </defs>
  <sodipodi:namedview
     id="base"
     pagecolor="#ffffff"
     bordercolor="#666666"
     borderopacity="1.0"
     inkscape:pageopacity="0.0"
     inkscape:pageshadow="2"
     inkscape:zoom="31.678384"
     inkscape:cx="47.109776"
     inkscape:cy="14.68029"
     inkscape:document-units="px"
     inkscape:current-layer="layer1"
     showgrid="false"
     inkscape:window-width="1916"
     inkscape:window-height="1041"
     inkscape:window-x="0"
     inkscape:window-y="18"
     inkscape:window-maximized="0"
     fit-margin-top="0"
     fit-margin-left="0"
     fit-margin-right="0"
     fit-margin-bottom="0" />
  <metadata
     id="metadata7">
    <rdf:RDF>
      <cc:Work
         rdf:about="">
        <dc:format>image/svg+xml</dc:format>
        <dc:type
           rdf:resource="http://purl.org/dc/dcmitype/StillImage" />
        <dc:title></dc:title>
      </cc:Work>
    </rdf:RDF>
  </metadata>
  <g
     inkscape:label="Layer 1"
     inkscape:groupmode="layer"
     id="layer1"
     transform="translate(-153.2929,-851.81382)">
    <text
       xml:space="preserve"
       style="font-style:normal;font-weight:normal;font-size:40px;line-height:125%;font-family:sans-serif;letter-spacing:0px;word-spacing:0px;fill:#000000;fill-opacity:1;stroke:none;stroke-width:1px;stroke-linecap:butt;stroke-linejoin:miter;stroke-opacity:1"
       x="290.42856"
       y="916.07654"
       id="text3638"
       sodipodi:linespacing="125%"><tspan
         sodipodi:role="line"
         id="tspan3640"
         x="290.42856"
         y="916.07654"
         style="font-style:normal;font-variant:normal;font-weight:normal;font-stretch:normal;font-size:40px;line-height:125%;font-family:xkcd;-inkscape-font-specification:'xkcd, Normal';text-align:start;writing-mode:lr-tb;text-anchor:start">Wannabe vagabonds</tspan></text>
    <path
       style="fill:#000000;stroke-width:0.1;stroke-miterlimit:4;stroke-dasharray:none"
       id="path4550"
       d="m 192.45048,937.77663 c 1.06251,-0.42079 1.02477,0.039 -0.83344,0.16819 -0.41507,0.0289 -3.15808,0.2613 -2.85283,-0.0214 0.3433,-0.31797 0.65923,-0.66485 0.97109,-1.01371 1.14332,-1.27894 2.05075,-2.68951 2.96976,-4.13221 1.89587,-3.02299 3.45041,-6.23126 4.96064,-9.45774 1.42282,-2.99827 2.65838,-6.0749 3.9586,-9.12638 1.71125,-4.58921 2.89982,-9.34533 4.07591,-14.09267 1.25284,-5.26562 2.56132,-10.51867 3.94024,-15.75268 0.81274,-2.0485 0.72009,-5.11831 2.04622,-6.93712 1.5462,-0.73922 3.02597,-1.6375 4.6386,-2.21767 0.16724,-0.0602 0.20039,0.2936 0.29958,0.44108 0.51387,0.76406 0.90519,1.56746 1.29335,2.40123 0.72941,1.58022 1.41564,3.17416 2.07811,4.78478 0.68669,1.52355 1.28144,3.08644 1.93772,4.62181 0.63772,1.49979 1.06099,3.07668 1.58478,4.6182 1.44322,4.21842 2.87338,8.43996 4.37749,12.63756 1.99978,5.65142 4.11123,11.26306 6.11945,16.91122 1.34042,3.47323 2.45006,7.04221 3.85476,10.49001 0.5984,1.42796 1.23237,2.8406 1.72289,4.31028 l -4.33372,2.38257 0,0 c -0.46476,-1.4699 -1.09307,-2.87423 -1.67135,-4.3016 -1.36545,-3.47739 -2.45483,-7.0641 -3.76735,-10.56202 -1.96889,-5.66054 -4.0986,-11.26608 -6.11106,-16.91112 -1.52559,-4.18385 -2.97007,-8.39584 -4.4946,-12.57961 -0.54114,-1.52258 -0.97969,-3.07902 -1.59753,-4.57277 -0.65237,-1.53881 -1.22232,-3.1141 -1.91973,-4.63587 -0.67568,-1.59563 -1.34604,-3.18946 -2.07376,-4.76119 -0.31806,-0.66311 -0.62325,-1.31563 -1.02468,-1.93299 -0.0823,-0.12656 -0.16793,-0.251 -0.25636,-0.37334 -0.0436,-0.0604 -0.20224,-0.13408 -0.13967,-0.17457 1.33186,-0.86185 2.74137,-1.59731 4.11205,-2.39597 -0.11562,0.0281 -0.26145,0.001 -0.34688,0.0842 -0.94739,0.91836 -1.43984,5.34191 -1.96865,6.59342 -1.42338,5.22864 -2.74163,10.4869 -3.98133,15.76201 -1.17097,4.74701 -2.33979,9.50024 -3.95379,14.12116 -1.30434,3.05889 -2.55794,6.13575 -3.96755,9.14899 -1.51492,3.24265 -3.04975,6.47895 -4.9523,9.51841 -2.98284,4.87087 -1.67038,3.36286 -3.72719,7.20212 l -0.87277,-0.0709 z"
       inkscape:connector-curvature="0"
       sodipodi:nodetypes="cscscccccccscccccccccccccccccccscccccccccc" />
    <path
       style="fill:#000000;stroke-width:0.1;stroke-miterlimit:4;stroke-dasharray:none"
       id="path4554"
       d="m 209.54985,898.27411 c 0.2843,0.48536 0.60131,0.9499 0.92136,1.41214 0.20243,0.33131 0.44314,0.63707 0.65934,0.95914 0.19141,0.3069 0.40516,0.59968 0.58965,0.91105 0.16175,0.22612 0.28215,0.69965 0.59197,0.75572 0.43209,-0.2545 -0.32894,0.19484 -0.92218,0.49962 -0.0331,0.017 0.0573,-0.0475 0.0833,-0.0742 0.12372,-0.12717 0.22223,-0.27509 0.32104,-0.42142 0.16993,-0.31887 0.36701,-0.62286 0.51675,-0.95202 0.40666,-0.8688 0.29412,-0.59467 1.52473,-1.20334 0.29327,0.19375 0.5639,0.42405 0.76916,0.71052 0.21156,0.23343 0.31135,0.53534 0.46456,0.80457 0.15899,0.21213 0.31992,0.62465 0.61943,0.64749 0.4161,-0.18678 0.33298,-0.15277 -0.86247,0.48518 -0.0408,0.0218 0.0784,-0.0495 0.11502,-0.0777 0.11129,-0.0856 0.20867,-0.19052 0.30533,-0.29164 0.23889,-0.27655 0.44956,-0.57416 0.653,-0.87705 0.2392,-0.31322 0.43284,-0.65435 0.62898,-0.99499 0.53755,-0.68391 1.0975,-1.20528 1.69971,-0.52444 0.24854,0.29282 0.48393,0.60029 0.70818,0.91259 0.21935,0.28752 0.37348,0.62834 0.65086,0.86646 0.16431,0.0736 0.41195,0.33869 0.59387,0.18769 0.39877,-0.2636 -0.13689,0.0926 -0.93192,0.52167 -0.0138,0.007 0.0718,-0.0473 0.19494,-0.20153 0.0544,-0.0681 0.37158,-0.50196 0.40827,-0.55195 0.32931,-0.45711 0.64496,-0.92197 0.9465,-1.39775 0,0 1.1303,-0.49842 1.1303,-0.49842 l 0,0 c -0.29898,0.48371 -0.6283,0.94555 -0.95479,1.41096 -0.53969,0.74274 -0.70954,1.1299 -1.77759,1.47883 -0.25587,-0.003 -0.45684,-0.16042 -0.66233,-0.29673 -0.27276,-0.25579 -0.44027,-0.59286 -0.66099,-0.8913 -0.22212,-0.30795 -0.45586,-0.61073 -0.70308,-0.89847 -0.07,-0.0729 -0.11586,-0.14194 -0.21605,-0.17365 -0.0287,-0.009 -0.11557,0.0152 -0.0904,-10e-4 1.81577,-1.18533 1.107,-0.71752 0.794,-0.44675 -0.19211,0.34532 -0.38791,0.68782 -0.62415,1.00563 -0.21513,0.29648 -0.40628,0.60959 -0.64517,0.88926 -0.4136,0.50285 -1.09231,1.04644 -1.72331,1.06869 -0.31364,-0.13075 -0.48746,-0.46141 -0.66911,-0.73249 -0.1502,-0.2659 -0.25127,-0.56147 -0.45731,-0.79321 -0.18148,-0.25022 -0.42312,-0.48842 -0.70949,-0.61153 0.32585,-0.19674 0.65682,-0.38524 0.97755,-0.59022 0.0281,-0.0179 -0.0692,0.007 -0.0962,0.0269 -0.0323,0.0234 -0.0537,0.0599 -0.0726,0.0951 -0.0735,0.13736 -0.10513,0.30054 -0.20355,0.42653 -0.13844,0.34093 -0.34683,0.64276 -0.50972,0.97153 -0.34305,0.55568 -0.91057,1.26029 -1.64333,1.18619 -0.31583,-0.1661 -0.45303,-0.53851 -0.63235,-0.82936 -0.18323,-0.30921 -0.39458,-0.60104 -0.58527,-0.90546 -0.21633,-0.32124 -0.45636,-0.62695 -0.65487,-0.96019 -0.31953,-0.46689 -0.6296,-0.93971 -0.93128,-1.41832 0,0 1.07167,-0.61809 1.07167,-0.61809 z"
       inkscape:connector-curvature="0" />
    <path
       style="fill:#000000;stroke-width:0.1;stroke-miterlimit:4;stroke-dasharray:none"
       id="path4560"
       d="m 233.30676,877.13371 c 0.17057,-0.0761 0.34416,-0.14578 0.51171,-0.22835 0.35961,-0.17723 0.71133,-0.37007 1.06489,-0.55908 0.16933,-0.0905 0.66964,-0.37602 0.50301,-0.28063 -1.92769,1.10348 -2.11467,1.23766 -1.09401,0.58106 1.50922,-0.94844 2.99666,-1.9321 4.52247,-2.85372 2.51263,-1.48398 4.99428,-3.06215 7.7641,-4.0193 2.18537,-0.72157 4.28873,-0.42877 6.48914,0.0175 2.54304,0.63899 5.02522,1.49213 7.42615,2.54296 1.94479,0.90487 3.78536,2.01102 5.69221,2.98787 1.02362,0.43001 2.01928,0.30053 3.02903,-0.0712 0.17175,-0.0751 0.34496,-0.14702 0.51524,-0.22542 0.4731,-0.21781 1.84331,-0.96908 1.39445,-0.7049 -3.00419,1.76821 0.19128,-0.20515 0.6467,-0.49767 1.16336,-0.73073 2.33122,-1.45503 3.47494,-2.2162 0,0 2.26772,-0.8879 2.26772,-0.8879 l 0,0 c -1.1443,0.77179 -2.32151,1.49385 -3.49101,2.22679 -2.16507,1.408 -4.35591,2.83287 -6.75097,3.81668 -1.06195,0.33267 -2.09888,0.38832 -3.13302,-0.099 -1.87734,-1.00733 -3.70426,-2.11145 -5.64582,-2.9975 -2.39135,-1.03589 -4.86335,-1.88397 -7.39732,-2.49982 -2.19336,-0.42056 -4.27402,-0.65261 -6.43234,0.1015 -0.9605,0.35054 -1.87399,0.74853 -2.78328,1.21884 -0.32336,0.16726 -1.24007,0.75267 -0.96113,0.51873 0.32896,-0.27587 0.73631,-0.4423 1.11381,-0.64677 0.32653,-0.17686 -0.64052,0.37593 -0.96078,0.56389 -1.52263,0.90551 -2.99186,1.89643 -4.49535,2.83316 -1.65813,1.09832 -3.4054,2.06683 -5.20053,2.92229 0,0 1.92999,-1.5438 1.92999,-1.5438 z"
       inkscape:connector-curvature="0" />
    <path
       style="fill:#000000;stroke-width:0.1;stroke-miterlimit:4;stroke-dasharray:none"
       id="path4562"
       d="m 165.2929,900.18216 c 1.15691,-0.90675 2.39514,-1.70122 3.55806,-2.59961 2.53195,-1.97891 3.88607,-2.56934 6.66521,-2.77006 1.55813,-0.12771 3.0964,-0.0635 4.62543,0.25609 1.49882,0.37511 2.85683,1.12847 4.2846,1.69354 0.99324,0.52777 2.04063,0.92879 3.13194,1.19595 1.17995,0.1318 2.35163,-0.0368 3.51018,-0.24606 1.42374,-0.34217 5.40561,-2.75779 0.0258,0.27097 0.38761,-0.23986 0.73774,-0.53206 1.09209,-0.8169 0,0 3.25293,-1.30142 3.25293,-1.30142 l 0,0 c -0.36667,0.27941 -0.68859,0.60808 -1.09105,0.83855 -1.94504,1.1582 -3.82805,2.57223 -6.06414,3.10618 -1.18731,0.19983 -2.40172,0.34879 -3.59813,0.12743 -1.09692,-0.29327 -2.15033,-0.70927 -3.15735,-1.23557 -1.39873,-0.58229 -2.74864,-1.31344 -4.23958,-1.64289 -1.51388,-0.27399 -3.03606,-0.31809 -4.56984,-0.17844 -0.53634,0.0493 -0.96523,0.0737 -1.49339,0.18132 -0.20953,0.0427 -0.41742,0.0962 -0.62012,0.16434 -0.17087,0.0575 -0.65011,0.30787 -0.49775,0.21152 0.64621,-0.40863 3.70959,-2.21351 1.98218,-1.15414 -1.13067,0.93328 -2.39095,1.69303 -3.55119,2.58906 0,0 -3.24587,1.31014 -3.24587,1.31014 z"
       inkscape:connector-curvature="0" />
    <path
       style="fill:#000000;stroke-width:0.1;stroke-miterlimit:4;stroke-dasharray:none"
       id="path4564"
       d="m 185.95276,861.76526 c 0.949,-1.10055 2.08751,-1.969 3.3056,-2.74339 0.16483,-0.0988 0.32706,-0.20215 0.49448,-0.29653 1.31035,-0.73872 2.58175,-1.55866 3.95375,-2.17537 0.45927,-0.20644 0.93192,-0.33691 1.38587,-0.55553 0.91275,-0.4545 1.93605,-0.52111 2.93616,-0.58909 1.32062,0.0501 2.59584,0.38683 3.88795,0.625 1.26738,0.28163 2.5608,0.48065 3.82229,0.79029 1.35846,0.36503 2.76405,0.45637 4.16261,0.52435 1.53228,0.0569 3.06595,0.0527 4.59902,0.05 0.98789,-0.11706 1.98167,-0.39721 2.87051,-0.84731 1.271,-0.59078 0.84859,-0.40704 -2.27706,1.32697 -0.11368,0.0631 0.22128,-0.13672 0.32821,-0.21063 0.30666,-0.21196 0.58556,-0.45579 0.89319,-0.66712 2.14569,-1.45659 4.49587,-2.57538 6.7211,-3.89467 2.56825,-1.43285 -3.54498,2.00201 -1.32448,0.6986 1.14279,-0.6708 2.29542,-1.32468 3.44313,-1.98701 0,0 -2.72066,2.19635 -2.72066,2.19635 l 0,0 c 6.00751,-3.50952 -0.26161,0.21643 -2.09947,1.2795 -1.03334,0.57974 -3.7871,2.12479 0.84009,-0.56654 0.84546,-0.49175 -2.46523,1.45521 -1.58809,1.00875 -0.45608,0.245 -0.78457,0.61093 -1.22656,0.87011 -1.11139,0.65171 -2.22097,1.30668 -3.34099,1.94343 -0.12485,0.071 -0.26132,0.11923 -0.39198,0.17884 -0.94465,0.3761 -1.91876,0.70069 -2.946,0.71871 -1.53516,-0.004 -3.0712,-0.003 -4.60524,-0.0678 -1.41503,-0.0798 -2.83271,-0.19822 -4.2064,-0.56908 -1.26443,-0.28086 -2.53896,-0.52319 -3.80757,-0.78173 -1.27161,-0.24293 -2.54017,-0.56345 -3.8448,-0.54273 -0.99057,0.088 -1.97418,0.22 -2.86891,0.687 -0.45959,0.18685 -0.92431,0.35289 -1.3747,0.56186 -0.15987,0.0742 -0.62646,0.32179 -0.47644,0.22927 1.41078,-0.87003 3.61612,-2.10593 2.01136,-1.20316 -1.19998,0.77801 -2.38915,1.53898 -3.33439,2.63994 0,0 -3.22158,1.36877 -3.22158,1.36877 z"
       inkscape:connector-curvature="0" />
    <path
       style="fill:#000000;stroke-width:0.1;stroke-miterlimit:4;stroke-dasharray:none"
       id="path4234"
       d="m 229.01429,921.50819 c 0.26596,-1.37032 0.54681,-2.73768 0.83118,-4.10429 0.41388,-1.90158 1.01066,-3.75443 1.66415,-5.5851 0.54428,-1.48621 1.04321,-2.98839 1.57123,-4.48029 0.49248,-1.32146 0.96582,-2.64765 1.40994,-3.98613 0.50625,-1.52936 1.02229,-3.0555 1.52833,-4.58493 0.53505,-1.60253 1.02154,-3.22002 1.48984,-4.84308 0.35316,-1.11665 0.60731,-2.26009 0.92043,-3.38751 0.16935,-0.56995 0.25539,-1.15982 0.43637,-1.72621 0.5057,-1.34708 1.15796,-0.91743 3.40879,-2.06768 0.0704,-0.036 0.33012,0.25574 0.38508,0.29952 0.5096,0.57295 0.97637,1.18603 1.45441,1.78654 1.36727,1.78262 2.59468,3.66207 3.7749,5.57187 1.60456,2.56771 3.16189,5.16334 4.69564,7.77374 1.39296,2.37226 2.84231,4.71003 4.32279,7.02844 1.29255,1.99527 2.49845,4.04436 3.75161,6.06437 0.98198,1.67877 2.01105,3.32925 2.9937,5.00754 0.65231,1.08555 1.3133,2.16503 1.98594,3.23796 0.52256,0.82466 1.05014,1.64503 1.53258,2.49407 0.38863,0.69631 0.7589,1.40156 1.1135,2.11574 0.36781,0.71383 0.72806,1.43168 1.0687,2.1589 0.29957,0.57397 0.60052,1.14708 0.89734,1.72253 0.17141,0.36709 0.38422,0.71543 0.51427,1.10023 0.0654,0.15746 0.0318,0.0764 0.10102,0.24312 0,0 -3.24501,1.81592 -3.24501,1.81592 l 0,0 c -0.0712,-0.17568 -0.0336,-0.0846 -0.11308,-0.2731 -0.10508,-0.37219 -0.3118,-0.70596 -0.45193,-1.06527 -0.28954,-0.58479 -0.61446,-1.15135 -0.89538,-1.74056 -0.32404,-0.73018 -0.68556,-1.44443 -1.0558,-2.15206 -0.35287,-0.70797 -0.72243,-1.40698 -1.10019,-2.10198 -0.4717,-0.8474 -0.97722,-1.67456 -1.48857,-2.49854 -0.68075,-1.07417 -1.32494,-2.16959 -1.95811,-3.27249 -0.94177,-1.69777 -1.9312,-3.36763 -2.9185,-5.03931 -1.21839,-2.03968 -2.44818,-4.07313 -3.75658,-6.05681 -1.43532,-2.34868 -2.80906,-4.73416 -4.22196,-7.09628 -1.5518,-2.59597 -3.13243,-5.17434 -4.72854,-7.7433 -1.21329,-1.87577 -2.46868,-3.72632 -3.90618,-5.44019 -0.49086,-0.55964 -0.96438,-1.14268 -1.50618,-1.65352 -0.0525,-0.0362 -0.10795,-0.10412 -0.18256,-0.0863 -0.0202,0.005 -0.0714,0.0427 -0.0533,0.0324 1.05008,-0.59796 2.10819,-1.18208 3.14935,-1.79544 0.0312,-0.0184 -0.0751,-0.01 -0.10847,0.004 -0.0368,0.0155 -0.0598,0.0529 -0.0897,0.0793 -0.29902,0.51904 -0.31186,1.15038 -0.5131,1.70727 -0.32564,1.14167 -0.63626,2.2874 -0.98593,3.42221 -0.47869,1.62885 -0.97478,3.25272 -1.50612,4.86526 -0.50575,1.52162 -0.98139,3.05316 -1.49744,4.57122 -0.4489,1.33624 -0.88145,2.6759 -1.39896,3.98825 -0.53429,1.50587 -1.07453,3.00956 -1.62746,4.50872 -0.65982,1.81137 -1.26381,3.64433 -1.66691,5.5325 -0.28484,1.32518 -0.51428,2.66056 -0.71091,4.00142 0,0 -3.31422,1.64728 -3.31422,1.64728 z"
       inkscape:connector-curvature="0" />
    <path
       style="fill:#000000;stroke-width:0.1;stroke-miterlimit:4;stroke-dasharray:none"
       id="path4236"
       d="m 238.00121,900.24502 c 0.19077,0.18071 0.38183,0.36134 0.56233,0.5524 0.14677,0.1562 0.27566,0.32755 0.41441,0.49043 0.16413,0.21261 0.31793,0.43374 0.4659,0.65797 0.19498,0.31174 0.39378,0.62091 0.60191,0.92403 0.16027,0.22395 0.30508,0.46028 0.48029,0.67318 0.0217,0.0164 0.0731,0.12878 0.11933,0.11268 0.0128,-0.004 0.0164,-0.0215 0.0246,-0.0323 0.0108,-0.0142 0.048,-0.0512 0.0324,-0.0427 -0.35991,0.19646 -0.7127,0.40571 -1.06905,0.60856 0.21497,-0.20382 0.31963,-0.5013 0.42545,-0.77137 0.1717,-0.45073 0.32936,-0.90688 0.47961,-1.36519 0.0643,-0.1872 0.12028,-0.37928 0.20354,-0.55946 0.0133,-0.0287 0.10179,-0.20406 0.14394,-0.22952 0.39568,-0.23907 0.80618,-0.45271 1.20927,-0.67906 0.0444,0.0207 0.0922,0.0353 0.1332,0.0622 0.11245,0.0738 0.22543,0.19714 0.31417,0.29369 0.18685,0.20329 0.35337,0.4227 0.52417,0.63932 0.2824,0.36328 0.55465,0.73432 0.83829,1.09663 0.0891,0.0858 0.2896,0.47235 0.41734,0.48348 0.0149,10e-4 0.0268,-0.0133 0.0402,-0.02 -0.36121,0.19167 -0.72242,0.38333 -1.08363,0.575 0.0207,-0.0215 0.0444,-0.0405 0.0621,-0.0645 0.0751,-0.1014 0.12076,-0.2365 0.17271,-0.35074 0.0562,-0.15002 0.12453,-0.29505 0.18278,-0.44415 0.0717,-0.17986 0.13653,-0.36232 0.21681,-0.53867 0.062,-0.12424 0.12627,-0.24851 0.20039,-0.36599 0.0702,-0.11183 0.13679,-0.22615 0.21126,-0.33527 0.30563,-0.50002 0.22415,-0.3138 1.27164,-0.84023 0.0341,-0.0171 0.0731,0.0227 0.10767,0.039 0.0527,0.0248 0.10217,0.056 0.15325,0.084 0.55482,0.35094 0.98534,0.85978 1.42362,1.34055 0.23023,0.25971 0.46587,0.51453 0.69876,0.77181 0.13941,0.154 0.27072,0.3078 0.42814,0.44338 0.47079,0.0606 0.25383,0.0191 -1.03001,0.57406 -0.0351,0.0152 0.0361,-0.0691 0.0417,-0.10699 0.0106,-0.0711 0.007,-0.14368 0.006,-0.21557 -0.001,-0.20632 -0.0159,-0.3842 -0.0292,-0.59036 -0.007,-0.10092 -0.0132,-0.20186 -0.0203,-0.30275 -0.0166,-0.23435 -0.027,-0.30032 -0.0298,-0.53237 -0.003,-0.21701 0.0129,-0.4335 0.0266,-0.64988 0.0291,-0.3116 0.0769,-0.62198 0.15028,-0.92628 0.0202,-0.0807 0.0383,-0.16188 0.0582,-0.24267 0,0 1.18206,-0.5612 1.18206,-0.5612 l 0,0 c -0.0266,0.0801 -0.0438,0.16164 -0.0658,0.24317 -0.0858,0.29871 -0.15198,0.60399 -0.17921,0.91412 -0.043,0.49317 -0.0635,0.98571 -0.006,1.4794 0.0205,0.27056 0.0499,0.54091 0.067,0.81167 0.004,0.0575 0.0533,0.13945 0.006,0.1727 -1.09216,0.77214 -0.82572,0.91518 -1.27841,0.61011 -0.14122,-0.15143 -0.2679,-0.31301 -0.40159,-0.47105 -0.22303,-0.26365 -0.45351,-0.52106 -0.68072,-0.78106 -0.25864,-0.28452 -0.52015,-0.56286 -0.80789,-0.81863 -0.12356,-0.10984 -0.29778,-0.25494 -0.44016,-0.34493 -0.0614,-0.0388 -0.1281,-0.0683 -0.19215,-0.10244 -0.0484,-0.0146 -0.0951,-0.0379 -0.1453,-0.0437 -0.025,-0.003 -0.0945,0.0317 -0.0732,0.0184 2.26792,-1.4173 1.13548,-0.87391 0.95859,-0.49833 -0.0704,0.11138 -0.14859,0.21778 -0.21128,0.33363 -0.0753,0.11577 -0.14657,0.23361 -0.2115,0.35557 -0.0915,0.16794 -0.15527,0.34863 -0.22036,0.52801 -0.0207,0.0517 -0.0346,0.10593 -0.0561,0.15726 -0.0409,0.0975 -0.0976,0.18958 -0.12714,0.2924 -0.0387,0.0913 -0.0847,0.17882 -0.1239,0.26971 -0.24986,0.57943 -0.10107,0.31155 -1.28414,0.87275 -0.23474,-0.11237 -0.32588,-0.37703 -0.48602,-0.56784 -0.27587,-0.3667 -0.54808,-0.73591 -0.82098,-1.10483 -0.16835,-0.21245 -0.33428,-0.42727 -0.52738,-0.61838 -0.0782,-0.0774 -0.18743,-0.18725 -0.29913,-0.2256 -0.0291,-0.01 -0.0616,4.1e-4 -0.0924,6.2e-4 2.1327,-1.29366 1.051,-0.78835 0.84406,-0.42548 -0.0986,0.17289 -0.14543,0.37086 -0.21817,0.55441 -0.1564,0.45599 -0.30778,0.91366 -0.47285,1.36658 -0.0994,0.28243 -0.20497,0.56777 -0.37046,0.81927 -0.39159,0.23289 -0.77788,0.47496 -1.17478,0.69869 -0.0958,0.054 -0.22785,-0.12241 -0.26879,-0.18525 -0.16311,-0.22435 -0.3016,-0.4657 -0.46382,-0.69082 -0.21039,-0.30233 -0.4079,-0.61292 -0.60363,-0.92491 -0.15022,-0.21895 -0.31435,-0.42715 -0.47739,-0.63658 -0.13143,-0.16479 -0.26284,-0.32929 -0.40323,-0.48672 -0.17858,-0.18831 -0.35972,-0.37575 -0.56623,-0.53403 0,0 1.11162,-0.693 1.11162,-0.693 z"
       inkscape:connector-curvature="0" />
    <path
       style="fill:#000000;stroke-width:0.1;stroke-miterlimit:4;stroke-dasharray:none"
       id="path4260"
       d="m 270.94888,896.79256 c 0.0331,-0.14319 -0.0465,0.12971 -10e-4,-0.01 0.0371,-0.10666 -0.0308,-0.12659 0.0317,-0.22008 0.0387,-0.0698 0.0923,-0.12864 0.13977,-0.19205 0.058,-0.0983 0.10428,-0.20355 0.15066,-0.30781 0.0651,-0.14369 0.10882,-0.29561 0.16777,-0.44167 0.0435,-0.0985 0.08,-0.19927 0.12691,-0.29626 0.0559,-0.10568 0.0864,-0.22143 0.12446,-0.33402 0.0623,-0.19813 0.12045,-0.39762 0.17433,-0.59822 0.0651,-0.24317 0.091,-0.49889 0.18551,-0.73349 0.12642,-0.21146 0.0565,-0.10815 0.58485,-0.32906 0.0227,-0.01 0.0931,0.16288 0.10227,0.1838 0.0488,0.11042 0.0742,0.22882 0.10741,0.34437 0.0829,0.29739 0.16583,0.59481 0.25769,0.88959 0.12012,0.36073 0.2318,0.72407 0.34045,1.08839 0.072,0.23445 0.1493,0.46741 0.21449,0.70389 0.0439,0.15496 0.0995,0.14541 0.24652,0.1586 0.20565,0.01 0.41172,0.007 0.61754,0.006 0.30272,-0.007 0.60481,0.0153 0.90713,0.0271 0.29115,0.002 0.58135,0.0249 0.87184,0.0421 0.18177,0.006 0.36253,0.0119 0.54272,0.0377 0.20086,0.16092 0.0666,0.0385 -0.52002,0.4068 -0.0273,0.0171 -0.0632,0.0123 -0.0946,0.0195 -0.0388,0.009 -0.0773,0.0188 -0.11594,0.0284 -0.15709,0.0392 -0.11203,0.0279 -0.27678,0.0746 -0.1882,0.058 -0.37965,0.11407 -0.55911,0.19657 -0.0648,0.0298 -0.14338,0.0768 -0.20541,0.11246 -0.30822,0.17483 0.27309,-0.1793 0.39512,-0.24696 0.43702,-0.15071 -0.0394,0.0997 -0.0611,0.11393 -0.0512,0.0335 -0.11402,0.0749 -0.16425,0.10981 -0.0762,0.0516 -0.12076,0.0962 -0.19515,0.15029 -0.10873,0.0851 -0.27608,0.13275 -0.3917,0.20826 -0.33723,0.21774 -1.21383,0.69029 -0.18285,0.11138 0.0169,-0.01 -0.0394,0.01 -0.0548,0.0213 -0.0452,0.0345 -0.0337,0.0458 -0.0677,0.0911 -0.0785,0.20059 0.003,0.42718 0.0567,0.62431 0.0992,0.34454 0.22459,0.68061 0.32878,1.02362 0.0957,0.31295 0.17588,0.63032 0.25162,0.94859 0.0223,0.1519 0.10385,0.31248 0.0661,0.46766 -0.18253,0.11219 -0.35772,0.23733 -0.5476,0.33657 -0.0162,0.008 -0.0326,-0.0164 -0.0487,-0.0249 -0.0943,-0.0502 -0.17849,-0.11318 -0.26348,-0.1776 -0.22269,-0.18709 -0.45634,-0.36015 -0.69022,-0.53281 -0.14952,-0.11813 -0.31268,-0.2182 -0.46116,-0.3375 -0.074,-0.0498 -0.14106,-0.10781 -0.21211,-0.16119 -0.0568,-0.0577 -0.12001,-0.1085 -0.17617,-0.16671 -0.0485,-0.0582 -0.1153,-0.0962 -0.177,-0.13882 -0.0561,-0.0476 -0.10292,-0.10407 -0.17249,-0.13137 -0.0671,0.003 -0.1321,0.0332 -0.19544,0.0561 -0.20621,0.10376 -0.67205,0.37567 0.18865,-0.11964 -0.18053,0.10146 -0.35289,0.21624 -0.52735,0.32754 -0.1483,0.0887 -0.28705,0.19203 -0.4323,0.28542 -0.0947,0.0604 -0.18387,0.12851 -0.27603,0.19252 -0.24306,0.17722 -0.5156,0.31307 -0.77345,0.46449 -0.15826,0.0929 0.31833,-0.18272 0.47749,-0.27408 -0.0149,0.009 -0.0297,0.0183 -0.0448,0.027 -1.8929,1.07746 1.23174,-0.7027 -0.6447,0.36659 -0.1668,0.0951 0.33241,-0.19217 0.49943,-0.28682 0.0101,-0.006 -0.019,0.0133 -0.0285,0.0199 -0.14522,0.10589 -0.5506,0.51613 -0.67009,0.20298 -0.0141,-0.11241 -0.002,-0.22779 0.0197,-0.33862 0.0159,-0.098 0.0448,-0.1924 0.0758,-0.28644 0.0427,-0.10485 0.0664,-0.21487 0.0917,-0.32462 0.021,-0.10155 0.0528,-0.2005 0.0745,-0.30183 0.0253,-0.12021 0.0549,-0.23951 0.0796,-0.35982 0.0162,-0.10284 0.0429,-0.20368 0.0675,-0.30476 0.0253,-0.10684 0.0546,-0.21271 0.076,-0.32043 -0.002,-0.0357 0.0623,-0.13527 0.02,-0.16411 -0.008,-0.006 -0.0182,-0.008 -0.0273,-0.0113 -0.0823,-0.0262 -0.16374,-0.0539 -0.24399,-0.0858 -0.0683,-0.0253 -0.13725,-0.0535 -0.19572,-0.0977 -0.15232,-0.13356 -0.27854,-0.29409 -0.40632,-0.4504 -0.23714,-0.29949 -0.46984,-0.60218 -0.70961,-0.89962 -0.18088,-0.22842 -0.36863,-0.45033 -0.56578,-0.66471 -0.0713,-0.0767 -0.17341,-0.13062 -0.14151,-0.24646 0.19257,-0.1036 0.38104,-0.21521 0.57771,-0.31077 0.002,-10e-4 0.0998,0.01 0.10996,0.0109 0.0676,0.007 0.13378,0.0131 0.2008,0.0248 0.14841,0.0247 0.29677,0.0498 0.44609,0.0685 0.20205,0.0157 0.40383,0.0344 0.60598,0.0494 0.26023,0.0129 0.51975,0.0399 0.77648,0.0843 0.19449,0.0243 0.38339,0.0733 0.57215,0.12383 0.0509,0.007 -0.0522,0.0282 -0.004,0.0457 l -0.36286,0.34571 0,0 c -0.0459,-0.0168 -0.092,-0.0331 -0.13983,-0.0437 -0.18456,-0.0539 -0.37107,-0.0983 -0.56215,-0.12299 -0.25552,-0.0426 -0.51349,-0.0691 -0.77234,-0.0802 -0.20426,-0.0146 -0.40877,-0.0279 -0.61244,-0.049 -0.15005,-0.0201 -0.29986,-0.0422 -0.44902,-0.0681 -0.0833,-0.0107 -0.17095,-0.0247 -0.25519,-0.0209 -0.19669,0.009 -0.52959,0.29292 0.44697,-0.28553 -0.12529,-0.0369 0.0805,0.14488 0.0851,0.15895 0.19066,0.22057 0.37633,0.44511 0.55756,0.67357 0.23588,0.29974 0.46894,0.60174 0.70956,0.89764 0.13028,0.14923 0.25782,0.30428 0.41553,0.42593 0.0583,0.0366 0.12372,0.0612 0.18764,0.0862 0.0829,0.0333 0.1699,0.0558 0.25015,0.0957 0.0983,0.0772 0.081,0.13346 0.0414,0.24043 -0.0195,0.10908 -0.0493,0.21559 -0.0736,0.32363 -0.0267,0.1 -0.0513,0.20129 -0.0711,0.30265 -0.0225,0.12049 -0.0525,0.23894 -0.0777,0.35887 -0.0183,0.10375 -0.0544,0.20184 -0.0718,0.30578 -0.0349,0.10749 -0.0434,0.22342 -0.0915,0.32746 -0.0293,0.0928 -0.0634,0.18405 -0.0782,0.28065 -0.0238,0.101 -0.035,0.20293 -0.0331,0.30697 0.005,0.0171 0.008,0.0375 0.0299,0.0394 0.01,8.6e-4 0.0365,-0.016 0.0279,-0.011 -0.16943,0.0975 -0.338,0.19647 -0.507,0.2947 0.19181,-0.12264 0.39852,-0.22126 0.58812,-0.3473 0.15861,-0.10542 -0.66232,0.37625 -0.49466,0.28591 0.20201,-0.10884 1.20922,-0.70021 0.0814,-0.043 -0.0152,0.009 0.0307,-0.0172 0.0461,-0.0258 0.19203,-0.11154 0.3836,-0.22387 0.57609,-0.33462 0.1572,-0.0904 -0.31317,0.18298 -0.47021,0.2737 -0.0189,0.0109 0.0376,-0.0223 0.0558,-0.0343 0.0175,-0.0116 0.0342,-0.0243 0.0513,-0.0364 0.0149,-0.009 0.0299,-0.0173 0.0446,-0.0265 0.0134,-0.008 0.0263,-0.0177 0.0394,-0.0265 0.0882,-0.0718 0.1874,-0.12982 0.27786,-0.19897 0.1488,-0.0904 0.28664,-0.197 0.43613,-0.28632 0.17441,-0.11111 0.34602,-0.22663 0.52553,-0.32954 0.28138,-0.16234 0.56614,-0.34874 0.86889,-0.4785 0.0747,-0.0236 0.14847,-0.0548 0.22472,-0.0182 0.0669,0.0371 0.1178,0.092 0.17715,0.1395 0.0654,0.044 0.13184,0.0886 0.18371,0.14885 0.0554,0.0551 0.114,0.10693 0.17123,0.16005 0.0695,0.0556 0.14036,0.10901 0.21046,0.16388 0.1455,0.11978 0.30168,0.22599 0.45075,0.34121 0.2313,0.17599 0.46282,0.35148 0.69191,0.53035 0.0676,0.0461 0.13729,0.10033 0.21289,0.13391 0.0146,0.007 0.0295,0.0142 0.0455,0.0151 0.009,5.1e-4 0.0307,-0.0157 0.0234,-0.0111 -0.16609,0.10393 -0.33324,0.20617 -0.49985,0.30925 0.007,-0.007 0.0165,-0.0118 0.0208,-0.0206 0.045,-0.0918 -0.0471,-0.31849 -0.0538,-0.41587 -0.073,-0.31818 -0.14582,-0.63667 -0.24355,-0.94841 -0.10522,-0.34304 -0.22852,-0.68007 -0.33207,-1.02359 -0.0606,-0.21327 -0.14458,-0.43808 -0.093,-0.66148 0.009,-0.0188 0.0163,-0.0387 0.0274,-0.0564 0.0222,-0.0353 0.0491,-0.0612 0.0849,-0.0827 0.19194,-0.11476 0.38737,-0.22362 0.57919,-0.33857 0.15249,-0.0914 -0.30698,0.17938 -0.46117,0.26785 -0.0229,0.0132 0.0449,-0.0279 0.0674,-0.0419 0.1167,-0.0706 0.22623,-0.15124 0.33404,-0.23411 0.0708,-0.06 0.14914,-0.10869 0.22581,-0.16048 0.29358,-0.19205 0.58699,-0.38488 0.90118,-0.54419 0.24269,-0.13082 0.50279,-0.22058 0.76824,-0.29406 0.1325,-0.0374 0.26817,-0.0675 0.3996,-0.10839 0.0313,-0.01 0.11756,-0.0545 0.0924,-0.0336 -0.42024,0.34939 -0.27543,0.38779 -0.46525,0.33439 -0.17639,-0.0272 -0.35453,-0.0281 -0.53239,-0.0388 -0.28789,-0.0204 -0.57562,-0.0419 -0.86437,-0.0455 -0.30333,-0.0114 -0.60665,-0.0296 -0.91032,-0.0216 -0.20938,10e-4 -0.41947,0.009 -0.62838,-0.008 -0.15998,-0.0226 -0.24467,-0.0535 -0.28504,-0.22127 -0.0581,-0.23878 -0.13001,-0.47416 -0.19935,-0.70985 -0.10656,-0.36469 -0.21984,-0.72712 -0.34014,-1.08752 -0.0918,-0.29387 -0.17888,-0.58913 -0.27197,-0.88259 -0.0349,-0.11212 -0.063,-0.22657 -0.10806,-0.33525 -0.0128,-0.029 -0.0229,-0.0593 -0.0368,-0.0879 -0.005,-0.011 -0.011,-0.0222 -0.019,-0.0314 -0.003,-0.004 -0.0182,-0.004 -0.0138,-0.006 0.46924,-0.28509 0.7069,-0.36435 0.48093,-0.28663 -0.12531,0.22094 -0.13797,0.48663 -0.20238,0.72806 -0.049,0.20043 -0.10495,0.39882 -0.15971,0.59773 -0.0431,0.1119 -0.0662,0.23093 -0.12059,0.33853 -0.0449,0.0985 -0.0907,0.19544 -0.13079,0.29615 -0.0671,0.14249 -0.10489,0.29661 -0.16695,0.44137 -0.0456,0.10599 -0.0939,0.21067 -0.14295,0.31501 -0.0388,0.0705 -0.099,0.12279 -0.14132,0.19123 -0.0533,0.0955 -0.12734,0.17976 -0.16254,0.28597 -0.0447,0.13811 -0.0979,0.27369 -0.12079,0.41796 l -0.24512,-0.16815 z"
       inkscape:connector-curvature="0"
       sodipodi:nodetypes="ccccccccccccccccccccccccccccccccccccccccccccccccccccccccccccccccccccccccccccccccccccccccccccccccccccccccccccccccccccccccccccccccccccccccccccccccccccccccccccccccccccccccccccccc" />
    <path
       style="fill:#000000;stroke-width:0.1;stroke-miterlimit:4;stroke-dasharray:none"
       id="path4260-1"
       d="m 235.347,862.18464 c 0.0331,-0.14319 -0.0465,0.12971 -0.001,-0.01 0.0371,-0.10666 -0.0308,-0.12659 0.0317,-0.22008 0.0387,-0.0698 0.0923,-0.12864 0.13977,-0.19205 0.058,-0.0983 0.10428,-0.20355 0.15066,-0.30781 0.0651,-0.14369 0.10882,-0.29561 0.16777,-0.44167 0.0435,-0.0985 0.08,-0.19927 0.12691,-0.29626 0.0559,-0.10568 0.0864,-0.22143 0.12446,-0.33402 0.0623,-0.19813 0.12045,-0.39762 0.17433,-0.59822 0.0651,-0.24317 0.091,-0.49889 0.18551,-0.73349 0.12642,-0.21146 0.0565,-0.10815 0.58485,-0.32906 0.0227,-0.01 0.0931,0.16288 0.10227,0.1838 0.0488,0.11042 0.0742,0.22882 0.10741,0.34437 0.0829,0.29739 0.16583,0.59481 0.25769,0.88959 0.12012,0.36073 0.2318,0.72407 0.34045,1.08839 0.072,0.23445 0.1493,0.46741 0.21449,0.70389 0.0439,0.15496 0.0995,0.14541 0.24652,0.1586 0.20565,0.01 0.41172,0.007 0.61754,0.006 0.30272,-0.007 0.60481,0.0153 0.90713,0.0271 0.29115,0.002 0.58135,0.0249 0.87184,0.0421 0.18177,0.006 0.36253,0.0119 0.54272,0.0377 0.20086,0.16092 0.0666,0.0385 -0.52002,0.4068 -0.0273,0.0171 -0.0632,0.0123 -0.0946,0.0195 -0.0388,0.009 -0.0773,0.0188 -0.11594,0.0284 -0.15709,0.0392 -0.11203,0.0279 -0.27678,0.0746 -0.1882,0.058 -0.37965,0.11407 -0.55911,0.19657 -0.0648,0.0298 -0.14338,0.0768 -0.20541,0.11246 -0.30822,0.17483 0.27309,-0.1793 0.39512,-0.24696 0.43702,-0.15071 -0.0394,0.0997 -0.0611,0.11393 -0.0512,0.0335 -0.11402,0.0749 -0.16425,0.10981 -0.0762,0.0516 -0.12076,0.0962 -0.19515,0.15029 -0.10873,0.0851 -0.27608,0.13275 -0.3917,0.20826 -0.33723,0.21774 -1.21383,0.69029 -0.18285,0.11138 0.0169,-0.01 -0.0394,0.01 -0.0548,0.0213 -0.0452,0.0345 -0.0337,0.0458 -0.0677,0.0911 -0.0785,0.20059 0.003,0.42718 0.0567,0.62431 0.0992,0.34454 0.22459,0.68061 0.32878,1.02362 0.0957,0.31295 0.17588,0.63032 0.25162,0.94859 0.0223,0.1519 0.10385,0.31248 0.0661,0.46766 -0.18253,0.11219 -0.35772,0.23733 -0.5476,0.33657 -0.0162,0.008 -0.0326,-0.0164 -0.0487,-0.0249 -0.0943,-0.0502 -0.17849,-0.11318 -0.26348,-0.1776 -0.22269,-0.18709 -0.45634,-0.36015 -0.69022,-0.53281 -0.14952,-0.11813 -0.31268,-0.2182 -0.46116,-0.3375 -0.074,-0.0498 -0.14106,-0.10781 -0.21211,-0.16119 -0.0568,-0.0577 -0.12001,-0.1085 -0.17617,-0.16671 -0.0485,-0.0582 -0.1153,-0.0962 -0.177,-0.13882 -0.0561,-0.0476 -0.10292,-0.10407 -0.17249,-0.13137 -0.0671,0.003 -0.1321,0.0332 -0.19544,0.0561 -0.20621,0.10376 -0.67205,0.37567 0.18865,-0.11964 -0.18053,0.10146 -0.35289,0.21624 -0.52735,0.32754 -0.1483,0.0887 -0.28705,0.19203 -0.4323,0.28542 -0.0947,0.0604 -0.18387,0.12851 -0.27603,0.19252 -0.24306,0.17722 -0.5156,0.31307 -0.77345,0.46449 -0.15826,0.0929 0.31833,-0.18272 0.47749,-0.27408 -0.0149,0.009 -0.0297,0.0183 -0.0448,0.027 -1.8929,1.07746 1.23174,-0.7027 -0.6447,0.36659 -0.1668,0.0951 0.33241,-0.19217 0.49943,-0.28682 0.0101,-0.006 -0.019,0.0133 -0.0285,0.0199 -0.14522,0.10589 -0.5506,0.51613 -0.67009,0.20298 -0.0141,-0.11241 -0.002,-0.22779 0.0197,-0.33862 0.0159,-0.098 0.0448,-0.1924 0.0758,-0.28644 0.0427,-0.10485 0.0664,-0.21487 0.0917,-0.32462 0.021,-0.10155 0.0528,-0.2005 0.0745,-0.30183 0.0253,-0.12021 0.0549,-0.23951 0.0796,-0.35982 0.0162,-0.10284 0.0429,-0.20368 0.0675,-0.30476 0.0253,-0.10684 0.0546,-0.21271 0.076,-0.32043 -0.002,-0.0357 0.0623,-0.13527 0.02,-0.16411 -0.008,-0.006 -0.0182,-0.008 -0.0273,-0.0113 -0.0823,-0.0262 -0.16374,-0.0539 -0.24399,-0.0858 -0.0683,-0.0253 -0.13725,-0.0535 -0.19572,-0.0977 -0.15232,-0.13356 -0.27854,-0.29409 -0.40632,-0.4504 -0.23714,-0.29949 -0.46984,-0.60218 -0.70961,-0.89962 -0.18088,-0.22842 -0.36863,-0.45033 -0.56578,-0.66471 -0.0713,-0.0767 -0.17341,-0.13062 -0.14151,-0.24646 0.19257,-0.1036 0.38104,-0.21521 0.57771,-0.31077 0.002,-10e-4 0.0998,0.01 0.10996,0.0109 0.0676,0.007 0.13378,0.0131 0.2008,0.0248 0.14841,0.0247 0.29677,0.0498 0.44609,0.0685 0.20205,0.0157 0.40383,0.0344 0.60598,0.0494 0.26023,0.0129 0.51975,0.0399 0.77648,0.0843 0.19449,0.0243 0.38339,0.0733 0.57215,0.12383 0.0509,0.007 -0.0522,0.0282 -0.004,0.0457 l -0.36286,0.34571 0,0 c -0.0459,-0.0168 -0.092,-0.0331 -0.13983,-0.0437 -0.18456,-0.0539 -0.37107,-0.0983 -0.56215,-0.12299 -0.25552,-0.0426 -0.51349,-0.0691 -0.77234,-0.0802 -0.20426,-0.0146 -0.40877,-0.0279 -0.61244,-0.049 -0.15005,-0.0201 -0.29986,-0.0422 -0.44902,-0.0681 -0.0833,-0.0107 -0.17095,-0.0247 -0.25519,-0.0209 -0.19669,0.009 -0.52959,0.29292 0.44697,-0.28553 -0.12529,-0.0369 0.0805,0.14488 0.0851,0.15895 0.19066,0.22057 0.37633,0.44511 0.55756,0.67357 0.23588,0.29974 0.46894,0.60174 0.70956,0.89764 0.13028,0.14923 0.25782,0.30428 0.41553,0.42593 0.0583,0.0366 0.12372,0.0612 0.18764,0.0862 0.0829,0.0333 0.1699,0.0558 0.25015,0.0957 0.0983,0.0772 0.081,0.13346 0.0414,0.24043 -0.0195,0.10908 -0.0493,0.21559 -0.0736,0.32363 -0.0267,0.1 -0.0513,0.20129 -0.0711,0.30265 -0.0225,0.12049 -0.0525,0.23894 -0.0777,0.35887 -0.0183,0.10375 -0.0544,0.20184 -0.0718,0.30578 -0.0349,0.10749 -0.0434,0.22342 -0.0915,0.32746 -0.0293,0.0928 -0.0634,0.18405 -0.0782,0.28065 -0.0238,0.101 -0.035,0.20293 -0.0331,0.30697 0.005,0.0171 0.008,0.0375 0.0299,0.0394 0.01,8.6e-4 0.0365,-0.016 0.0279,-0.011 -0.16943,0.0975 -0.338,0.19647 -0.507,0.2947 0.19181,-0.12264 0.39852,-0.22126 0.58812,-0.3473 0.15861,-0.10542 -0.66232,0.37625 -0.49466,0.28591 0.20201,-0.10884 1.20922,-0.70021 0.0814,-0.043 -0.0152,0.009 0.0307,-0.0172 0.0461,-0.0258 0.19203,-0.11154 0.3836,-0.22387 0.57609,-0.33462 0.1572,-0.0904 -0.31317,0.18298 -0.47021,0.2737 -0.0189,0.0109 0.0376,-0.0223 0.0558,-0.0343 0.0175,-0.0116 0.0342,-0.0243 0.0513,-0.0364 0.0149,-0.009 0.0299,-0.0173 0.0446,-0.0265 0.0134,-0.008 0.0263,-0.0177 0.0394,-0.0265 0.0882,-0.0718 0.1874,-0.12982 0.27786,-0.19897 0.1488,-0.0904 0.28664,-0.197 0.43613,-0.28632 0.17441,-0.11111 0.34602,-0.22663 0.52553,-0.32954 0.28138,-0.16234 0.56614,-0.34874 0.86889,-0.4785 0.0747,-0.0236 0.14847,-0.0548 0.22472,-0.0182 0.0669,0.0371 0.1178,0.092 0.17715,0.1395 0.0654,0.044 0.13184,0.0886 0.18371,0.14885 0.0554,0.0551 0.114,0.10693 0.17123,0.16005 0.0695,0.0556 0.14036,0.10901 0.21046,0.16388 0.1455,0.11978 0.30168,0.22599 0.45075,0.34121 0.2313,0.17599 0.46282,0.35148 0.69191,0.53035 0.0676,0.0461 0.13729,0.10033 0.21289,0.13391 0.0146,0.007 0.0295,0.0142 0.0455,0.0151 0.009,5.1e-4 0.0307,-0.0157 0.0234,-0.0111 -0.16609,0.10393 -0.33324,0.20617 -0.49985,0.30925 0.007,-0.007 0.0165,-0.0118 0.0208,-0.0206 0.045,-0.0918 -0.0471,-0.31849 -0.0538,-0.41587 -0.073,-0.31818 -0.14582,-0.63667 -0.24355,-0.94841 -0.10522,-0.34304 -0.22852,-0.68007 -0.33207,-1.02359 -0.0606,-0.21327 -0.14458,-0.43808 -0.093,-0.66148 0.009,-0.0188 0.0163,-0.0387 0.0274,-0.0564 0.0222,-0.0353 0.0491,-0.0612 0.0849,-0.0827 0.19194,-0.11476 0.38737,-0.22362 0.57919,-0.33857 0.15249,-0.0914 -0.30698,0.17938 -0.46117,0.26785 -0.0229,0.0132 0.0449,-0.0279 0.0674,-0.0419 0.1167,-0.0706 0.22623,-0.15124 0.33404,-0.23411 0.0708,-0.06 0.14914,-0.10869 0.22581,-0.16048 0.29358,-0.19205 0.58699,-0.38488 0.90118,-0.54419 0.24269,-0.13082 0.50279,-0.22058 0.76824,-0.29406 0.1325,-0.0374 0.26817,-0.0675 0.3996,-0.10839 0.0313,-0.01 0.11756,-0.0545 0.0924,-0.0336 -0.42024,0.34939 -0.27543,0.38779 -0.46525,0.33439 -0.17639,-0.0272 -0.35453,-0.0281 -0.53239,-0.0388 -0.28789,-0.0204 -0.57562,-0.0419 -0.86437,-0.0455 -0.30333,-0.0114 -0.60665,-0.0296 -0.91032,-0.0216 -0.20938,10e-4 -0.41947,0.009 -0.62838,-0.008 -0.15998,-0.0226 -0.24467,-0.0535 -0.28504,-0.22127 -0.0581,-0.23878 -0.13001,-0.47416 -0.19935,-0.70985 -0.10656,-0.36469 -0.21984,-0.72712 -0.34014,-1.08752 -0.0918,-0.29387 -0.17888,-0.58913 -0.27197,-0.88259 -0.0349,-0.11212 -0.063,-0.22657 -0.10806,-0.33525 -0.0128,-0.029 -0.0229,-0.0593 -0.0368,-0.0879 -0.005,-0.011 -0.011,-0.0222 -0.019,-0.0314 -0.003,-0.004 -0.0182,-0.004 -0.0138,-0.006 0.46924,-0.28509 0.7069,-0.36435 0.48093,-0.28663 -0.12531,0.22094 -0.13797,0.48663 -0.20238,0.72806 -0.049,0.20043 -0.10495,0.39882 -0.15971,0.59773 -0.0431,0.1119 -0.0662,0.23093 -0.12059,0.33853 -0.0449,0.0985 -0.0907,0.19544 -0.13079,0.29615 -0.0671,0.14249 -0.10489,0.29661 -0.16695,0.44137 -0.0456,0.10599 -0.0939,0.21067 -0.14295,0.31501 -0.0388,0.0705 -0.099,0.12279 -0.14132,0.19123 -0.0533,0.0955 -0.12734,0.17976 -0.16254,0.28597 -0.0447,0.13811 -0.0979,0.27369 -0.12079,0.41796 l -0.24512,-0.16815 z"
       inkscape:connector-curvature="0"
       sodipodi:nodetypes="ccccccccccccccccccccccccccccccccccccccccccccccccccccccccccccccccccccccccccccccccccccccccccccccccccccccccccccccccccccccccccccccccccccccccccccccccccccccccccccccccccccccccccccccc" />
    <path
       style="fill:#000000;stroke-width:0.1;stroke-miterlimit:4;stroke-dasharray:none"
       id="path4260-7"
       d="m 184.27557,878.25606 c 0.0331,-0.14319 -0.0465,0.12971 -10e-4,-0.01 0.0371,-0.10666 -0.0308,-0.12659 0.0317,-0.22008 0.0387,-0.0698 0.0923,-0.12864 0.13977,-0.19205 0.058,-0.0983 0.10428,-0.20355 0.15066,-0.30781 0.0651,-0.14369 0.10882,-0.29561 0.16777,-0.44167 0.0435,-0.0985 0.08,-0.19927 0.12691,-0.29626 0.0559,-0.10568 0.0864,-0.22143 0.12446,-0.33402 0.0623,-0.19813 0.12045,-0.39762 0.17433,-0.59822 0.0651,-0.24317 0.091,-0.49889 0.18551,-0.73349 0.12642,-0.21146 0.0565,-0.10815 0.58485,-0.32906 0.0227,-0.01 0.0931,0.16288 0.10227,0.1838 0.0488,0.11042 0.0742,0.22882 0.10741,0.34437 0.0829,0.29739 0.16583,0.59481 0.25769,0.88959 0.12012,0.36073 0.2318,0.72407 0.34045,1.08839 0.072,0.23445 0.1493,0.46741 0.21449,0.70389 0.0439,0.15496 0.0995,0.14541 0.24652,0.1586 0.20565,0.01 0.41172,0.007 0.61754,0.006 0.30272,-0.007 0.60481,0.0153 0.90713,0.0271 0.29115,0.002 0.58135,0.0249 0.87184,0.0421 0.18177,0.006 0.36253,0.0119 0.54272,0.0377 0.20086,0.16092 0.0666,0.0385 -0.52002,0.4068 -0.0273,0.0171 -0.0632,0.0123 -0.0946,0.0195 -0.0388,0.009 -0.0773,0.0188 -0.11594,0.0284 -0.15709,0.0392 -0.11203,0.0279 -0.27678,0.0746 -0.1882,0.058 -0.37965,0.11407 -0.55911,0.19657 -0.0648,0.0298 -0.14338,0.0768 -0.20541,0.11246 -0.30822,0.17483 0.27309,-0.1793 0.39512,-0.24696 0.43702,-0.15071 -0.0394,0.0997 -0.0611,0.11393 -0.0512,0.0335 -0.11402,0.0749 -0.16425,0.10981 -0.0762,0.0516 -0.12076,0.0962 -0.19515,0.15029 -0.10873,0.0851 -0.27608,0.13275 -0.3917,0.20826 -0.33723,0.21774 -1.21383,0.69029 -0.18285,0.11138 0.0169,-0.01 -0.0394,0.01 -0.0548,0.0213 -0.0452,0.0345 -0.0337,0.0458 -0.0677,0.0911 -0.0785,0.20059 0.003,0.42718 0.0567,0.62431 0.0992,0.34454 0.22459,0.68061 0.32878,1.02362 0.0957,0.31295 0.17588,0.63032 0.25162,0.94859 0.0223,0.1519 0.10385,0.31248 0.0661,0.46766 -0.18253,0.11219 -0.35772,0.23733 -0.5476,0.33657 -0.0162,0.008 -0.0326,-0.0164 -0.0487,-0.0249 -0.0943,-0.0502 -0.17849,-0.11318 -0.26348,-0.1776 -0.22269,-0.18709 -0.45634,-0.36015 -0.69022,-0.53281 -0.14952,-0.11813 -0.31268,-0.2182 -0.46116,-0.3375 -0.074,-0.0498 -0.14106,-0.10781 -0.21211,-0.16119 -0.0568,-0.0577 -0.12001,-0.1085 -0.17617,-0.16671 -0.0485,-0.0582 -0.1153,-0.0962 -0.177,-0.13882 -0.0561,-0.0476 -0.10292,-0.10407 -0.17249,-0.13137 -0.0671,0.003 -0.1321,0.0332 -0.19544,0.0561 -0.20621,0.10376 -0.67205,0.37567 0.18865,-0.11964 -0.18053,0.10146 -0.35289,0.21624 -0.52735,0.32754 -0.1483,0.0887 -0.28705,0.19203 -0.4323,0.28542 -0.0947,0.0604 -0.18387,0.12851 -0.27603,0.19252 -0.24306,0.17722 -0.5156,0.31307 -0.77345,0.46449 -0.15826,0.0929 0.31833,-0.18272 0.47749,-0.27408 -0.0149,0.009 -0.0297,0.0183 -0.0448,0.027 -1.8929,1.07746 1.23174,-0.7027 -0.6447,0.36659 -0.1668,0.0951 0.33241,-0.19217 0.49943,-0.28682 0.0101,-0.006 -0.019,0.0133 -0.0285,0.0199 -0.14522,0.10589 -0.5506,0.51613 -0.67009,0.20298 -0.0141,-0.11241 -0.002,-0.22779 0.0197,-0.33862 0.0159,-0.098 0.0448,-0.1924 0.0758,-0.28644 0.0427,-0.10485 0.0664,-0.21487 0.0917,-0.32462 0.021,-0.10155 0.0528,-0.2005 0.0745,-0.30183 0.0253,-0.12021 0.0549,-0.23951 0.0796,-0.35982 0.0162,-0.10284 0.0429,-0.20368 0.0675,-0.30476 0.0253,-0.10684 0.0546,-0.21271 0.076,-0.32043 -0.002,-0.0357 0.0623,-0.13527 0.02,-0.16411 -0.008,-0.006 -0.0182,-0.008 -0.0273,-0.0113 -0.0823,-0.0262 -0.16374,-0.0539 -0.24399,-0.0858 -0.0683,-0.0253 -0.13725,-0.0535 -0.19572,-0.0977 -0.15232,-0.13356 -0.27854,-0.29409 -0.40632,-0.4504 -0.23714,-0.29949 -0.46984,-0.60218 -0.70961,-0.89962 -0.18088,-0.22842 -0.36863,-0.45033 -0.56578,-0.66471 -0.0713,-0.0767 -0.17341,-0.13062 -0.14151,-0.24646 0.19257,-0.1036 0.38104,-0.21521 0.57771,-0.31077 0.002,-10e-4 0.0998,0.01 0.10996,0.0109 0.0676,0.007 0.13378,0.0131 0.2008,0.0248 0.14841,0.0247 0.29677,0.0498 0.44609,0.0685 0.20205,0.0157 0.40383,0.0344 0.60598,0.0494 0.26023,0.0129 0.51975,0.0399 0.77648,0.0843 0.19449,0.0243 0.38339,0.0733 0.57215,0.12383 0.0509,0.007 -0.0522,0.0282 -0.004,0.0457 l -0.36286,0.34571 0,0 c -0.0459,-0.0168 -0.092,-0.0331 -0.13983,-0.0437 -0.18456,-0.0539 -0.37107,-0.0983 -0.56215,-0.12299 -0.25552,-0.0426 -0.51349,-0.0691 -0.77234,-0.0802 -0.20426,-0.0146 -0.40877,-0.0279 -0.61244,-0.049 -0.15005,-0.0201 -0.29986,-0.0422 -0.44902,-0.0681 -0.0833,-0.0107 -0.17095,-0.0247 -0.25519,-0.0209 -0.19669,0.009 -0.52959,0.29292 0.44697,-0.28553 -0.12529,-0.0369 0.0805,0.14488 0.0851,0.15895 0.19066,0.22057 0.37633,0.44511 0.55756,0.67357 0.23588,0.29974 0.46894,0.60174 0.70956,0.89764 0.13028,0.14923 0.25782,0.30428 0.41553,0.42593 0.0583,0.0366 0.12372,0.0612 0.18764,0.0862 0.0829,0.0333 0.1699,0.0558 0.25015,0.0957 0.0983,0.0772 0.081,0.13346 0.0414,0.24043 -0.0195,0.10908 -0.0493,0.21559 -0.0736,0.32363 -0.0267,0.1 -0.0513,0.20129 -0.0711,0.30265 -0.0225,0.12049 -0.0525,0.23894 -0.0777,0.35887 -0.0183,0.10375 -0.0544,0.20184 -0.0718,0.30578 -0.0349,0.10749 -0.0434,0.22342 -0.0915,0.32746 -0.0293,0.0928 -0.0634,0.18405 -0.0782,0.28065 -0.0238,0.101 -0.035,0.20293 -0.0331,0.30697 0.005,0.0171 0.008,0.0375 0.0299,0.0394 0.01,8.6e-4 0.0365,-0.016 0.0279,-0.011 -0.16943,0.0975 -0.338,0.19647 -0.507,0.2947 0.19181,-0.12264 0.39852,-0.22126 0.58812,-0.3473 0.15861,-0.10542 -0.66232,0.37625 -0.49466,0.28591 0.20201,-0.10884 1.20922,-0.70021 0.0814,-0.043 -0.0152,0.009 0.0307,-0.0172 0.0461,-0.0258 0.19203,-0.11154 0.3836,-0.22387 0.57609,-0.33462 0.1572,-0.0904 -0.31317,0.18298 -0.47021,0.2737 -0.0189,0.0109 0.0376,-0.0223 0.0558,-0.0343 0.0175,-0.0116 0.0342,-0.0243 0.0513,-0.0364 0.0149,-0.009 0.0299,-0.0173 0.0446,-0.0265 0.0134,-0.008 0.0263,-0.0177 0.0394,-0.0265 0.0882,-0.0718 0.1874,-0.12982 0.27786,-0.19897 0.1488,-0.0904 0.28664,-0.197 0.43613,-0.28632 0.17441,-0.11111 0.34602,-0.22663 0.52553,-0.32954 0.28138,-0.16234 0.56614,-0.34874 0.86889,-0.4785 0.0747,-0.0236 0.14847,-0.0548 0.22472,-0.0182 0.0669,0.0371 0.1178,0.092 0.17715,0.1395 0.0654,0.044 0.13184,0.0886 0.18371,0.14885 0.0554,0.0551 0.114,0.10693 0.17123,0.16005 0.0695,0.0556 0.14036,0.10901 0.21046,0.16388 0.1455,0.11978 0.30168,0.22599 0.45075,0.34121 0.2313,0.17599 0.46282,0.35148 0.69191,0.53035 0.0676,0.0461 0.13729,0.10033 0.21289,0.13391 0.0146,0.007 0.0295,0.0142 0.0455,0.0151 0.009,5.1e-4 0.0307,-0.0157 0.0234,-0.0111 -0.16609,0.10393 -0.33324,0.20617 -0.49985,0.30925 0.007,-0.007 0.0165,-0.0118 0.0208,-0.0206 0.045,-0.0918 -0.0471,-0.31849 -0.0538,-0.41587 -0.073,-0.31818 -0.14582,-0.63667 -0.24355,-0.94841 -0.10522,-0.34304 -0.22852,-0.68007 -0.33207,-1.02359 -0.0606,-0.21327 -0.14458,-0.43808 -0.093,-0.66148 0.009,-0.0188 0.0163,-0.0387 0.0274,-0.0564 0.0222,-0.0353 0.0491,-0.0612 0.0849,-0.0827 0.19194,-0.11476 0.38737,-0.22362 0.57919,-0.33857 0.15249,-0.0914 -0.30698,0.17938 -0.46117,0.26785 -0.0229,0.0132 0.0449,-0.0279 0.0674,-0.0419 0.1167,-0.0706 0.22623,-0.15124 0.33404,-0.23411 0.0708,-0.06 0.14914,-0.10869 0.22581,-0.16048 0.29358,-0.19205 0.58699,-0.38488 0.90118,-0.54419 0.24269,-0.13082 0.50279,-0.22058 0.76824,-0.29406 0.1325,-0.0374 0.26817,-0.0675 0.3996,-0.10839 0.0313,-0.01 0.11756,-0.0545 0.0924,-0.0336 -0.42024,0.34939 -0.27543,0.38779 -0.46525,0.33439 -0.17639,-0.0272 -0.35453,-0.0281 -0.53239,-0.0388 -0.28789,-0.0204 -0.57562,-0.0419 -0.86437,-0.0455 -0.30333,-0.0114 -0.60665,-0.0296 -0.91032,-0.0216 -0.20938,10e-4 -0.41947,0.009 -0.62838,-0.008 -0.15998,-0.0226 -0.24467,-0.0535 -0.28504,-0.22127 -0.0581,-0.23878 -0.13001,-0.47416 -0.19935,-0.70985 -0.10656,-0.36469 -0.21984,-0.72712 -0.34014,-1.08752 -0.0918,-0.29387 -0.17888,-0.58913 -0.27197,-0.88259 -0.0349,-0.11212 -0.063,-0.22657 -0.10806,-0.33525 -0.0128,-0.029 -0.0229,-0.0593 -0.0368,-0.0879 -0.005,-0.011 -0.011,-0.0222 -0.019,-0.0314 -0.003,-0.004 -0.0182,-0.004 -0.0138,-0.006 0.46924,-0.28509 0.7069,-0.36435 0.48093,-0.28663 -0.12531,0.22094 -0.13797,0.48663 -0.20238,0.72806 -0.049,0.20043 -0.10495,0.39882 -0.15971,0.59773 -0.0431,0.1119 -0.0662,0.23093 -0.12059,0.33853 -0.0449,0.0985 -0.0907,0.19544 -0.13079,0.29615 -0.0671,0.14249 -0.10489,0.29661 -0.16695,0.44137 -0.0456,0.10599 -0.0939,0.21067 -0.14295,0.31501 -0.0388,0.0705 -0.099,0.12279 -0.14132,0.19123 -0.0533,0.0955 -0.12734,0.17976 -0.16254,0.28597 -0.0447,0.13811 -0.0979,0.27369 -0.12079,0.41796 l -0.24512,-0.16815 z"
       inkscape:connector-curvature="0"
       sodipodi:nodetypes="ccccccccccccccccccccccccccccccccccccccccccccccccccccccccccccccccccccccccccccccccccccccccccccccccccccccccccccccccccccccccccccccccccccccccccccccccccccccccccccccccccccccccccccccc" />
  </g>
</svg>
